<svg width="11" height="10" viewBox="0 0 11 10" fill="none" xmlns="http://www.w3.org/2000/svg">
<path d="M0 4.51636C0 4.26323 0.188103 4.05403 0.432153 4.02092L0.5 4.01636L10.5 4.01636C10.7761 4.01636 11 4.24022 11 4.51636C11 4.76949 10.8119 4.97868 10.5678 5.01179L10.5 5.01636L0.5 5.01636C0.223858 5.01636 0 4.7925 0 4.51636Z" fill="#3D3D3D"/>
<path d="M6.11401 0.854362C5.91832 0.65952 5.91764 0.342939 6.11248 0.147257C6.28961 -0.0306363 6.56735 -0.0473715 6.76341 0.097443L6.81959 0.145734L10.8529 4.16173C11.0313 4.33939 11.0476 4.61813 10.9016 4.81418L10.853 4.87033L6.81962 8.887C6.62395 9.08186 6.30737 9.0812 6.11251 8.88554C5.93537 8.70766 5.91981 8.42985 6.06545 8.23441L6.11398 8.17843L9.79133 4.51585L6.11401 0.854362Z" fill="#3D3D3D"/>
</svg>
